<svg width="185" height="61" viewBox="0 0 185 61" fill="none" xmlns="http://www.w3.org/2000/svg">
<path d="M63.0798 16.8086C54.5061 16.8237 47.9217 23.4446 47.9454 32.0268C47.969 40.5704 54.6049 47.1332 63.2151 47.1118C71.778 47.0924 78.3967 40.4415 78.3624 31.8915C78.328 23.3414 71.6942 16.7914 63.0798 16.8086ZM66.4611 40.4071C63.2516 41.8357 60.2161 41.2664 57.5802 38.9678C54.1667 35.986 53.6039 30.2588 56.272 26.422C57.0055 25.347 57.9808 24.4589 59.1198 23.8292C60.2588 23.1995 61.5295 22.8456 62.83 22.7961C64.1305 22.7466 65.4245 23.0028 66.6081 23.5441C67.7916 24.0854 68.8317 24.8967 69.6448 25.9129C70.9832 27.5541 71.6792 29.6337 71.677 32.697C71.5503 35.7948 70.0465 38.8088 66.4611 40.4071Z" fill="#DB4437"/>
<path d="M96.188 16.7969C87.5585 16.8098 80.9354 23.4307 80.959 32.0494C80.9762 40.5543 87.6465 47.1258 96.2481 47.1151C104.779 47.1043 111.404 40.5157 111.413 32.043C111.419 23.4049 104.807 16.7861 96.188 16.7969ZM95.0881 41.0463C91.8421 40.6832 89.073 38.2106 88.0611 34.7841C86.7722 30.4103 88.5982 25.682 92.3082 23.7636C97.6917 20.9709 104.014 24.5306 104.65 30.7025C104.693 31.1321 104.701 31.5618 104.708 31.6821C104.706 37.6069 100.416 41.6435 95.0881 41.0463Z" fill="#F4B400"/>
<path d="M164.795 36.5287C171.487 33.7575 178.183 30.9841 185.001 28.1635C184.477 26.9604 184.071 25.8885 183.56 24.868C179.71 17.2246 171.431 14.5243 164.275 18.694C159.581 21.4309 157.487 25.8004 157.186 31.098C156.561 42.5567 167.461 50.3226 177.996 45.9337C180.763 44.7801 182.937 42.8811 184.677 40.3934L179.521 36.9777C175.28 43.2721 166.849 41.8435 164.795 36.5287ZM169.671 22.9454C172.7 22.0861 175.83 23.2848 177.1 25.8885L163.667 31.4739C163.334 27.6457 165.955 23.998 169.671 22.9454Z" fill="#DB4437"/>
<path d="M45.5078 21.434H44.2833C38.019 21.434 31.7547 21.434 25.4904 21.434C25.0995 21.434 24.7106 21.4834 24.3197 21.5092H24.1048C24.0447 21.5436 23.9351 21.5758 23.9351 21.6123C23.9072 23.5844 23.8814 25.5586 23.8965 27.5329C23.8965 27.6252 24.2788 27.7133 24.4829 27.8035C24.7292 27.8413 24.9773 27.8664 25.2262 27.8787C29.8664 27.8787 34.5081 27.8787 39.1511 27.8787C38.8246 31.9604 37.0673 35.23 33.7505 37.6855C26.861 42.7897 13.5011 41.9154 8.56873 30.6672C5.70941 24.1472 6.54293 17.8486 11.181 12.3749C15.7525 6.97632 22.8889 5.09231 29.3852 7.46182C31.5592 8.25452 33.5206 9.62295 35.4476 10.6584L39.9718 6.41992C39.9718 6.41992 39.6452 6.17717 39.5185 6.05902C31.2606 -1.59303 18.5795 -2.04846 9.30772 4.98489C-1.83092 13.4425 -3.19721 29.4255 6.42693 39.5587C12.094 45.5244 19.1488 47.8703 27.2649 46.968C36.266 45.967 43.2779 39.7671 45.2543 31.2042C46.0107 27.9997 46.097 24.6735 45.5078 21.434Z" fill="#4285F4"/>
<path d="M143.069 17.7991H136.82C136.785 18.5639 136.755 19.2814 136.716 20.1321L135.397 19.131L133.894 18.1256C131.067 16.551 128.078 16.45 125.049 17.3029C119.273 18.9269 114.813 24.1128 114.216 30.042C113.552 36.6091 116.055 41.7477 121.696 45.2021C126.304 48.0228 132.607 47.9347 136.476 43.9132C136.508 43.8809 136.603 43.9132 136.691 43.9132C136.691 45.1592 136.798 46.4094 136.671 47.6339C136.295 51.2365 134.371 53.5695 131.2 54.431C127.816 55.3504 124.437 54.2505 122.377 51.5179C121.885 50.8735 121.49 50.1452 121.002 49.3697L115.322 51.7328C118.523 59.4106 126.901 62.5943 134.53 59.6813L138.087 57.6254C138.098 57.6282 138.11 57.6287 138.121 57.6268C138.132 57.625 138.143 57.6208 138.152 57.6145C138.162 57.6082 138.17 57.6 138.176 57.5904C138.182 57.5808 138.186 57.5701 138.188 57.5588L138.386 57.3762L138.6 57.1614L139.327 56.4031L139.316 56.3773C139.861 55.6834 140.495 55.0411 140.933 54.2849C142.517 51.5545 143.107 48.5555 143.11 45.4255C143.11 36.4802 143.11 27.5342 143.11 18.5875C143.116 18.3512 143.088 18.1063 143.069 17.7991ZM136.422 36.1387C134.966 39.6532 131.818 41.4577 128.126 41.0646C124.727 40.7037 121.767 37.8959 121 34.2675C120.839 33.5049 120.785 32.7165 120.727 32.2095C120.854 28.6198 122.055 25.8701 124.916 24.0355C125.762 23.4773 126.711 23.093 127.708 22.9049C128.704 22.7169 129.728 22.7289 130.719 22.9402C131.711 23.1515 132.65 23.5579 133.483 24.1358C134.316 24.7136 135.026 25.4514 135.571 26.3062C137.58 29.4082 137.827 32.7466 136.422 36.1387Z" fill="#4285F4"/>
<path d="M147.613 1.64551V46.1528H154.165V1.64551H147.613Z" fill="#0F9D58"/>
</svg>
