<svg width="198" height="17" viewBox="0 0 198 17" fill="none" xmlns="http://www.w3.org/2000/svg">
<g clip-path="url(#clip0_943_70328)">
<path d="M0 16.2188V0.21875H6.67188C7.86979 0.21875 8.8724 0.388021 9.67969 0.726562C10.4922 1.0651 11.1016 1.53906 11.5078 2.14844C11.9193 2.75781 12.125 3.46354 12.125 4.26563C12.125 4.875 11.9974 5.41927 11.7422 5.89844C11.487 6.3724 11.1354 6.76563 10.6875 7.07813C10.2396 7.39063 9.72135 7.60938 9.13281 7.73438V7.89062C9.77865 7.92188 10.375 8.09635 10.9219 8.41406C11.474 8.73177 11.9167 9.17448 12.25 9.74219C12.5833 10.3047 12.75 10.9714 12.75 11.7422C12.75 12.6016 12.5313 13.3698 12.0938 14.0469C11.6563 14.7188 11.0234 15.25 10.1953 15.6406C9.36719 16.026 8.36198 16.2188 7.17969 16.2188H0ZM3.86719 13.1016H6.25781C7.09635 13.1016 7.71354 12.9427 8.10938 12.625C8.51042 12.3073 8.71094 11.8646 8.71094 11.2969C8.71094 10.8854 8.61458 10.5313 8.42188 10.2344C8.22917 9.93229 7.95573 9.70052 7.60156 9.53906C7.2474 9.3724 6.82292 9.28906 6.32812 9.28906H3.86719V13.1016ZM3.86719 6.79688H6.00781C6.42969 6.79688 6.80469 6.72656 7.13281 6.58594C7.46094 6.44531 7.71615 6.24219 7.89844 5.97656C8.08594 5.71094 8.17969 5.39063 8.17969 5.01562C8.17969 4.47917 7.98958 4.05729 7.60938 3.75C7.22917 3.44271 6.71615 3.28906 6.07031 3.28906H3.86719V6.79688Z" fill="#F7631B"/>
<path d="M28.83 8.21875C28.83 9.97917 28.4915 11.4714 27.8144 12.6953C27.1373 13.9193 26.2207 14.849 25.0644 15.4844C23.9134 16.1198 22.6217 16.4375 21.1894 16.4375C19.7519 16.4375 18.4576 16.1172 17.3066 15.4766C16.1556 14.8359 15.2415 13.9063 14.5644 12.6875C13.8925 11.4635 13.5566 9.97396 13.5566 8.21875C13.5566 6.45833 13.8925 4.96615 14.5644 3.74219C15.2415 2.51823 16.1556 1.58854 17.3066 0.953125C18.4576 0.317708 19.7519 0 21.1894 0C22.6217 0 23.9134 0.317708 25.0644 0.953125C26.2207 1.58854 27.1373 2.51823 27.8144 3.74219C28.4915 4.96615 28.83 6.45833 28.83 8.21875ZM24.8769 8.21875C24.8769 7.17708 24.7285 6.29688 24.4316 5.57813C24.1399 4.85937 23.7181 4.3151 23.166 3.94531C22.6191 3.57552 21.9602 3.39062 21.1894 3.39062C20.4238 3.39062 19.7649 3.57552 19.2129 3.94531C18.6608 4.3151 18.2363 4.85937 17.9394 5.57813C17.6477 6.29688 17.5019 7.17708 17.5019 8.21875C17.5019 9.26042 17.6477 10.1406 17.9394 10.8594C18.2363 11.5781 18.6608 12.1224 19.2129 12.4922C19.7649 12.862 20.4238 13.0469 21.1894 13.0469C21.9602 13.0469 22.6191 12.862 23.166 12.4922C23.7181 12.1224 24.1399 11.5781 24.4316 10.8594C24.7285 10.1406 24.8769 9.26042 24.8769 8.21875Z" fill="#F7631B"/>
<path d="M38.6328 0.21875L42.2109 11.9375H42.3438L45.9219 0.21875H50.25L44.8516 16.2188H39.7031L34.3047 0.21875H38.6328Z" fill="white"/>
<path d="M65.248 8.21875C65.248 9.97917 64.9095 11.4714 64.2324 12.6953C63.5553 13.9193 62.6386 14.849 61.4824 15.4844C60.3313 16.1198 59.0397 16.4375 57.6074 16.4375C56.1699 16.4375 54.8756 16.1172 53.7246 15.4766C52.5735 14.8359 51.6595 13.9063 50.9824 12.6875C50.3105 11.4635 49.9746 9.97396 49.9746 8.21875C49.9746 6.45833 50.3105 4.96615 50.9824 3.74219C51.6595 2.51823 52.5735 1.58854 53.7246 0.953125C54.8756 0.317708 56.1699 0 57.6074 0C59.0397 0 60.3313 0.317708 61.4824 0.953125C62.6386 1.58854 63.5553 2.51823 64.2324 3.74219C64.9095 4.96615 65.248 6.45833 65.248 8.21875ZM61.2949 8.21875C61.2949 7.17708 61.1464 6.29688 60.8496 5.57813C60.5579 4.85937 60.136 4.3151 59.5839 3.94531C59.0371 3.57552 58.3782 3.39062 57.6074 3.39062C56.8418 3.39062 56.1829 3.57552 55.6308 3.94531C55.0787 4.3151 54.6543 4.85937 54.3574 5.57813C54.0657 6.29688 53.9199 7.17708 53.9199 8.21875C53.9199 9.26042 54.0657 10.1406 54.3574 10.8594C54.6543 11.5781 55.0787 12.1224 55.6308 12.4922C56.1829 12.862 56.8418 13.0469 57.6074 13.0469C58.3782 13.0469 59.0371 12.862 59.5839 12.4922C60.136 12.1224 60.5579 11.5781 60.8496 10.8594C61.1464 10.1406 61.2949 9.26042 61.2949 8.21875Z" fill="white"/>
<path d="M66.627 16.2188V0.21875H73.2364C74.4343 0.21875 75.4682 0.434896 76.338 0.867188C77.213 1.29427 77.8874 1.90885 78.3614 2.71094C78.8353 3.50781 79.0723 4.45312 79.0723 5.54688C79.0723 6.65625 78.83 7.59896 78.3457 8.375C77.8613 9.14583 77.1738 9.73438 76.2832 10.1406C75.3925 10.5417 74.3379 10.7422 73.1191 10.7422H68.9395V7.69531H72.4005C72.9838 7.69531 73.4708 7.61979 73.8614 7.46875C74.2572 7.3125 74.5567 7.07813 74.7598 6.76563C74.963 6.44792 75.0645 6.04167 75.0645 5.54688C75.0645 5.05208 74.963 4.64323 74.7598 4.32031C74.5567 3.99219 74.2572 3.7474 73.8614 3.58594C73.4656 3.41927 72.9786 3.33594 72.4005 3.33594H70.4941V16.2188H66.627ZM75.6348 8.90625L79.6191 16.2188H75.4005L71.4941 8.90625H75.6348Z" fill="white"/>
<path d="M80.3125 16.2188V0.21875H86.9844C88.1823 0.21875 89.1849 0.388021 89.9922 0.726562C90.8047 1.0651 91.4141 1.53906 91.8203 2.14844C92.2318 2.75781 92.4375 3.46354 92.4375 4.26563C92.4375 4.875 92.3099 5.41927 92.0547 5.89844C91.7995 6.3724 91.4479 6.76563 91 7.07813C90.5521 7.39063 90.0339 7.60938 89.4453 7.73438V7.89062C90.0912 7.92188 90.6875 8.09635 91.2344 8.41406C91.7865 8.73177 92.2292 9.17448 92.5625 9.74219C92.8959 10.3047 93.0625 10.9714 93.0625 11.7422C93.0625 12.6016 92.8438 13.3698 92.4063 14.0469C91.9688 14.7188 91.336 15.25 90.5078 15.6406C89.6797 16.026 88.6745 16.2188 87.4922 16.2188H80.3125ZM84.1797 13.1016H86.5703C87.4089 13.1016 88.0261 12.9427 88.4219 12.625C88.8229 12.3073 89.0235 11.8646 89.0235 11.2969C89.0235 10.8854 88.9271 10.5313 88.7344 10.2344C88.5417 9.93229 88.2683 9.70052 87.9141 9.53906C87.5599 9.3724 87.1354 9.28906 86.6407 9.28906H84.1797V13.1016ZM84.1797 6.79688H86.3203C86.7422 6.79688 87.1172 6.72656 87.4453 6.58594C87.7735 6.44531 88.0287 6.24219 88.211 5.97656C88.3985 5.71094 88.4922 5.39063 88.4922 5.01562C88.4922 4.47917 88.3021 4.05729 87.9219 3.75C87.5417 3.44271 87.0287 3.28906 86.3828 3.28906H84.1797V6.79688Z" fill="white"/>
<path d="M94.043 16.2188V0.21875H105.199V3.35938H97.9102V6.64062H104.628V9.78906H97.9102V13.0781H105.199V16.2188H94.043Z" fill="white"/>
<path d="M106.74 16.2188V0.21875H113.349C114.547 0.21875 115.581 0.434896 116.451 0.867188C117.326 1.29427 118 1.90885 118.474 2.71094C118.948 3.50781 119.185 4.45312 119.185 5.54688C119.185 6.65625 118.943 7.59896 118.458 8.375C117.974 9.14583 117.286 9.73438 116.396 10.1406C115.505 10.5417 114.451 10.7422 113.232 10.7422H109.052V7.69531H112.513C113.096 7.69531 113.583 7.61979 113.974 7.46875C114.37 7.3125 114.669 7.07813 114.872 6.76563C115.076 6.44792 115.177 6.04167 115.177 5.54688C115.177 5.05208 115.076 4.64323 114.872 4.32031C114.669 3.99219 114.37 3.7474 113.974 3.58594C113.578 3.41927 113.091 3.33594 112.513 3.33594H110.607V16.2188H106.74ZM115.747 8.90625L119.732 16.2188H115.513L111.607 8.90625H115.747Z" fill="white"/>
<path d="M120.428 16.2188V0.21875H131.584V3.35938H124.295V6.64062H131.014V9.78906H124.295V13.0781H131.584V16.2188H120.428Z" fill="white"/>
<path d="M136.992 0.21875V16.2188H133.125V0.21875H136.992Z" fill="white"/>
<path d="M138.018 3.35938V0.21875H151.541V3.35938H146.69V16.2188H142.877V3.35938H138.018Z" fill="white"/>
<path d="M162.228 0.21875H166.088V10.5391C166.088 11.7318 165.804 12.7708 165.236 13.6563C164.669 14.5365 163.877 15.2188 162.861 15.7031C161.846 16.1823 160.666 16.4219 159.322 16.4219C157.963 16.4219 156.775 16.1823 155.76 15.7031C154.744 15.2188 153.955 14.5365 153.393 13.6563C152.83 12.7708 152.549 11.7318 152.549 10.5391V0.21875H156.416V10.2031C156.416 10.7552 156.536 11.2474 156.775 11.6797C157.02 12.112 157.361 12.4505 157.799 12.6953C158.236 12.9401 158.744 13.0625 159.322 13.0625C159.9 13.0625 160.406 12.9401 160.838 12.6953C161.275 12.4505 161.616 12.112 161.861 11.6797C162.106 11.2474 162.228 10.7552 162.228 10.2031V0.21875Z" fill="white"/>
<path d="M181.25 0.21875V16.2188H177.969L171.601 6.98438H171.5V16.2188H167.633V0.21875H170.961L177.258 9.4375H177.39V0.21875H181.25Z" fill="white"/>
<path d="M193.3 5.44531C193.212 5.11719 193.082 4.82813 192.91 4.57813C192.738 4.32292 192.527 4.10677 192.277 3.92969C192.027 3.7526 191.741 3.61979 191.418 3.53125C191.095 3.4375 190.741 3.39062 190.355 3.39062C189.579 3.39062 188.907 3.57812 188.34 3.95312C187.777 4.32813 187.342 4.875 187.035 5.59375C186.728 6.30729 186.574 7.17448 186.574 8.19531C186.574 9.22135 186.722 10.0964 187.019 10.8203C187.316 11.5443 187.746 12.0964 188.308 12.4766C188.871 12.8568 189.553 13.0469 190.355 13.0469C191.063 13.0469 191.662 12.9323 192.152 12.7031C192.647 12.4688 193.022 12.138 193.277 11.7109C193.532 11.2839 193.66 10.7813 193.66 10.2031L194.379 10.2891H190.488V7.46875H197.386V9.58594C197.386 11.0182 197.082 12.2448 196.472 13.2656C195.868 14.2865 195.035 15.0703 193.972 15.6172C192.915 16.1641 191.699 16.4375 190.324 16.4375C188.798 16.4375 187.457 16.1068 186.3 15.4453C185.144 14.7839 184.243 13.8411 183.597 12.6172C182.952 11.388 182.629 9.92969 182.629 8.24219C182.629 6.92969 182.824 5.76563 183.215 4.75C183.605 3.72917 184.149 2.86458 184.847 2.15625C185.55 1.44792 186.363 0.911459 187.285 0.546875C188.212 0.182292 189.209 0 190.277 0C191.204 0 192.066 0.132813 192.863 0.398438C193.665 0.664063 194.373 1.03906 194.988 1.52344C195.608 2.00781 196.11 2.58333 196.496 3.25C196.881 3.91667 197.121 4.64844 197.215 5.44531H193.3Z" fill="white"/>
</g>
<defs>
<clipPath id="clip0_943_70328">
<rect width="198" height="17" fill="white"/>
</clipPath>
</defs>
</svg>
