<svg width="44" height="44" viewBox="0 0 44 44" fill="none" xmlns="http://www.w3.org/2000/svg">
<path d="M18.3333 16.9279C18.3333 16.3201 18.0919 15.7372 17.6621 15.3074C17.2323 14.8777 16.6495 14.6362 16.0417 14.6362C15.4339 14.6362 14.851 14.8777 14.4212 15.3074C13.9914 15.7372 13.75 16.3201 13.75 16.9279C13.75 17.5357 13.9914 18.1186 14.4212 18.5484C14.851 18.9781 15.4339 19.2196 16.0417 19.2196C16.6495 19.2196 17.2323 18.9781 17.6621 18.5484C18.0919 18.1186 18.3333 17.5357 18.3333 16.9279ZM27.9583 14.6362C28.2593 14.6362 28.5573 14.6955 28.8353 14.8107C29.1134 14.9258 29.366 15.0946 29.5788 15.3074C29.7916 15.5202 29.9604 15.7729 30.0756 16.0509C30.1907 16.329 30.25 16.627 30.25 16.9279C30.25 17.2288 30.1907 17.5268 30.0756 17.8049C29.9604 18.0829 29.7916 18.3355 29.5788 18.5484C29.366 18.7612 29.1134 18.93 28.8353 19.0451C28.5573 19.1603 28.2593 19.2196 27.9583 19.2196C27.3505 19.2196 26.7677 18.9781 26.3379 18.5484C25.9081 18.1186 25.6667 17.5357 25.6667 16.9279C25.6667 16.3201 25.9081 15.7372 26.3379 15.3074C26.7677 14.8777 27.3505 14.6362 27.9583 14.6362ZM16.9217 29.8199C16.8112 29.9668 16.6724 30.09 16.5136 30.1823C16.3547 30.2746 16.1789 30.3342 15.9966 30.3574C15.8143 30.3806 15.6292 30.3671 15.4522 30.3176C15.2753 30.268 15.11 30.1836 14.9663 30.0691C14.8225 29.9546 14.7032 29.8125 14.6153 29.6511C14.5274 29.4897 14.4727 29.3124 14.4545 29.1295C14.4363 28.9467 14.455 28.762 14.5094 28.5865C14.5638 28.411 14.6528 28.2481 14.7712 28.1076C15.6354 27.0192 16.7346 26.1402 17.9863 25.5364C19.2381 24.9326 20.6102 24.6195 22 24.6206C23.3898 24.6195 24.7619 24.9326 26.0137 25.5364C27.2654 26.1402 28.3646 27.0192 29.2288 28.1076C29.3472 28.2481 29.4362 28.411 29.4906 28.5865C29.545 28.762 29.5637 28.9467 29.5455 29.1295C29.5273 29.3124 29.4726 29.4897 29.3847 29.6511C29.2968 29.8125 29.1775 29.9546 29.0337 30.0691C28.89 30.1836 28.7247 30.268 28.5478 30.3176C28.3708 30.3671 28.1857 30.3806 28.0034 30.3574C27.8211 30.3342 27.6453 30.2746 27.4864 30.1823C27.3276 30.09 27.1888 29.9668 27.0783 29.8199C26.4713 29.0553 25.6991 28.438 24.8197 28.0141C23.9402 27.5903 22.9763 27.3709 22 27.3724C21.0236 27.3711 20.0595 27.5908 19.1801 28.015C18.3006 28.4391 17.5285 29.0568 16.9217 29.8217" fill="#F7631B"/>
<path fill-rule="evenodd" clip-rule="evenodd" d="M22.0003 3.6665C11.8748 3.6665 3.66699 11.8743 3.66699 21.9998C3.66699 32.1253 11.8748 40.3332 22.0003 40.3332C32.1258 40.3332 40.3337 32.1253 40.3337 21.9998C40.3337 11.8743 32.1258 3.6665 22.0003 3.6665ZM6.41699 21.9998C6.41699 17.8669 8.0588 13.9032 10.9812 10.9808C13.9037 8.05831 17.8674 6.4165 22.0003 6.4165C26.1333 6.4165 30.097 8.05831 33.0194 10.9808C35.9418 13.9032 37.5837 17.8669 37.5837 21.9998C37.5837 26.1328 35.9418 30.0965 33.0194 33.0189C30.097 35.9414 26.1333 37.5832 22.0003 37.5832C17.8674 37.5832 13.9037 35.9414 10.9812 33.0189C8.0588 30.0965 6.41699 26.1328 6.41699 21.9998Z" fill="#F7631B"/>
</svg>
