<svg width="32" height="24" viewBox="0 0 32 24" fill="none" xmlns="http://www.w3.org/2000/svg">
<g clip-path="url(#clip0_1055_71995)">
<mask id="mask0_1055_71995" style="mask-type:alpha" maskUnits="userSpaceOnUse" x="0" y="0" width="32" height="24">
<path d="M28.9524 0H3.04762C1.36447 0 0 1.43269 0 3.2V20.8C0 22.5673 1.36447 24 3.04762 24H28.9524C30.6355 24 32 22.5673 32 20.8V3.2C32 1.43269 30.6355 0 28.9524 0Z" fill="white"/>
</mask>
<g mask="url(#mask0_1055_71995)">
<path d="M28.9524 0H3.04762C1.36447 0 0 1.43269 0 3.2V20.8C0 22.5673 1.36447 24 3.04762 24H28.9524C30.6355 24 32 22.5673 32 20.8V3.2C32 1.43269 30.6355 0 28.9524 0Z" fill="#FFDA00"/>
<path fill-rule="evenodd" clip-rule="evenodd" d="M0 0H32V12.8H0V0Z" fill="#0266C3"/>
<path d="M28.9522 0.799988H3.04743C1.78507 0.799988 0.761719 1.8745 0.761719 3.19999V20.8C0.761719 22.1255 1.78507 23.2 3.04743 23.2H28.9522C30.2146 23.2 31.2379 22.1255 31.2379 20.8V3.19999C31.2379 1.8745 30.2146 0.799988 28.9522 0.799988Z" stroke="black" stroke-opacity="0.1"/>
</g>
</g>
<defs>
<clipPath id="clip0_1055_71995">
<rect width="32" height="24" fill="white"/>
</clipPath>
</defs>
</svg>
